<?xml version="1.0" standalone="no"?>
<!DOCTYPE svg PUBLIC "-//W3C//DTD SVG 20010904//EN"
 "http://www.w3.org/TR/2001/REC-SVG-20010904/DTD/svg10.dtd">
<svg version="1.0" xmlns="http://www.w3.org/2000/svg"
 width="1024.000000pt" height="1024.000000pt" viewBox="0 0 1024.000000 1024.000000"
 preserveAspectRatio="xMidYMid meet">
<metadata>
Created by potrace 1.11, written by Peter Selinger 2001-2013
</metadata>
<g transform="translate(0.000000,1024.000000) scale(0.100000,-0.100000)"
fill="#000000" stroke="none">
<path d="M8516 10154 c-81 -17 -130 -36 -291 -115 -207 -101 -368 -142 -615
-156 -191 -10 -402 -6 -625 12 -37 3 -331 39 -410 50 -77 11 -103 14 -175 19
-204 17 -580 22 -750 12 -36 -3 -114 -7 -175 -11 -133 -7 -216 -13 -270 -19
-22 -3 -69 -7 -105 -11 -114 -11 -247 -28 -400 -50 -14 -2 -47 -7 -75 -10 -69
-10 -279 -53 -344 -72 -29 -8 -59 -16 -65 -17 -6 -2 -45 -13 -86 -26 -41 -13
-77 -24 -80 -25 -3 -1 -14 -5 -25 -9 -11 -4 -33 -13 -50 -19 -143 -50 -488
-210 -660 -305 -111 -61 -219 -124 -237 -140 -10 -8 -18 -11 -18 -6 0 5 -4 4
-8 -1 -4 -6 -61 -46 -127 -89 -66 -43 -131 -86 -145 -97 -14 -10 -84 -63 -156
-118 -73 -55 -142 -108 -155 -119 -13 -11 -44 -37 -69 -57 -67 -55 -156 -133
-230 -200 -103 -94 -428 -422 -505 -509 -39 -44 -77 -87 -85 -96 -72 -75 -307
-370 -380 -476 -8 -12 -30 -43 -47 -69 -18 -25 -33 -49 -33 -54 0 -4 -8 -16
-18 -27 -22 -25 -83 -121 -166 -264 -37 -63 -71 -122 -76 -130 -32 -53 -230
-462 -230 -475 0 -3 -12 -32 -26 -63 -80 -173 -181 -526 -213 -742 -5 -36 -12
-83 -16 -105 -3 -22 -12 -80 -19 -130 -16 -101 -23 -167 -31 -270 -3 -38 -7
-83 -10 -100 -2 -16 -7 -70 -10 -120 -3 -49 -8 -119 -11 -155 -9 -129 -15
-319 -14 -515 1 -201 3 -235 15 -400 11 -135 13 -155 29 -265 82 -557 79
-1051 -10 -1350 -14 -47 -59 -153 -99 -236 -98 -200 -127 -310 -126 -479 0
-66 3 -131 5 -145 3 -13 8 -42 11 -65 4 -22 11 -58 17 -80 5 -22 12 -51 15
-64 9 -49 77 -218 114 -284 22 -38 39 -71 39 -73 0 -3 5 -10 10 -17 6 -7 26
-36 46 -65 82 -123 244 -290 379 -393 68 -52 161 -109 175 -109 6 0 10 -4 10
-9 0 -5 10 -13 23 -16 12 -4 54 -22 92 -41 104 -49 220 -81 405 -110 14 -2 77
-4 140 -5 174 0 271 25 460 121 148 74 242 108 375 136 11 2 40 7 65 10 25 3
53 8 64 10 113 21 526 21 751 0 36 -4 164 -18 185 -21 8 -1 47 -6 85 -10 39
-4 72 -8 75 -10 3 -2 34 -6 70 -10 36 -4 73 -9 82 -10 18 -4 152 -14 263 -20
89 -5 535 -5 595 0 25 2 97 6 160 10 171 9 296 19 370 30 14 2 60 6 102 10 42
3 87 8 100 10 13 3 43 7 68 10 25 3 56 7 70 10 14 2 75 11 135 20 188 27 559
119 592 147 7 6 13 8 13 5 0 -7 109 33 177 64 23 10 44 19 47 19 7 0 117 49
136 61 8 5 22 12 30 15 26 11 294 145 335 168 22 13 65 37 95 54 100 55 134
76 244 147 102 66 343 238 376 267 8 8 35 30 60 49 59 45 208 169 246 204 6 5
49 44 95 85 103 92 466 454 534 534 28 32 61 70 75 84 21 22 130 155 163 197
4 5 21 26 38 45 17 19 69 89 117 155 47 66 90 122 94 123 4 2 8 7 8 12 0 4 27
48 61 96 153 224 365 616 466 864 19 47 41 99 49 116 45 100 155 474 179 609
13 74 14 80 19 125 3 25 7 54 10 65 2 11 7 45 11 75 4 30 9 64 11 75 2 11 6
47 9 80 3 33 8 71 10 85 2 14 6 54 10 90 3 36 8 81 10 100 8 67 15 155 21 270
3 63 8 147 10 185 6 103 5 488 -1 575 -13 196 -17 239 -21 285 -2 28 -6 61 -9
75 -8 39 -36 261 -49 380 -25 228 -25 658 -1 790 1 8 6 35 10 60 4 25 14 72
22 105 8 33 16 67 18 75 5 22 45 132 55 152 87 160 142 291 154 372 4 21 9 42
12 47 7 12 7 233 -1 284 -11 74 -32 180 -35 180 -1 0 -3 10 -6 22 -5 29 -61
190 -71 206 -4 6 -8 14 -9 17 0 3 -12 28 -26 55 -90 183 -263 389 -443 534
-102 80 -275 179 -390 222 -212 78 -528 116 -689 83z m-3558 -1275 c110 -54
176 -162 176 -290 0 -93 -25 -148 -98 -223 -57 -58 -103 -79 -261 -121 -55
-15 -104 -30 -110 -33 -5 -4 -14 -7 -20 -8 -16 -3 -145 -53 -195 -76 -354
-160 -683 -378 -1025 -679 -233 -205 -411 -381 -585 -579 -36 -41 -72 -81 -80
-90 -8 -8 -31 -36 -50 -60 -19 -25 -37 -47 -40 -50 -39 -35 -222 -293 -317
-446 -161 -259 -273 -509 -347 -773 -18 -64 -42 -135 -54 -157 -60 -118 -148
-168 -304 -173 -83 -3 -130 19 -205 95 -59 61 -81 117 -90 225 -6 75 20 178
89 354 22 55 41 105 42 110 5 17 18 48 49 115 68 151 90 194 137 275 28 48 50
88 50 91 0 6 64 107 163 259 78 118 289 399 327 435 3 3 16 19 29 35 25 33 94
112 186 214 91 100 462 469 534 531 36 30 78 68 95 84 17 16 75 64 128 107 98
78 118 94 141 115 24 21 335 244 340 244 3 0 32 17 64 38 32 21 74 47 93 58
19 10 37 21 40 24 3 3 19 12 35 20 17 8 37 20 46 27 48 40 526 255 579 261 3
0 19 6 35 12 178 70 299 79 403 29z"/>
</g>
</svg>
